Sora-Black.ufo
<glyph name="percent" format="2">
  <advance width="904"/>
  <unicode hex="0025"/>
  <outline>
    <contour>
      <point x="246" y="0" type="line"/>
      <point x="400" y="0" type="line"/>
      <point x="662" y="730" type="line"/>
      <point x="508" y="730" type="line"/>
    </contour>
    <contour>
      <point x="197" y="326" type="curve" smooth="yes"/>
      <point x="318" y="326"/>
      <point x="379" y="413"/>
      <point x="379" y="524" type="curve" smooth="yes"/>
      <point x="379" y="550" type="line" smooth="yes"/>
      <point x="379" y="667"/>
      <point x="314" y="748"/>
      <point x="197" y="748" type="curve" smooth="yes"/>
      <point x="80" y="748"/>
      <point x="15" y="667"/>
      <point x="15" y="550" type="curve" smooth="yes"/>
      <point x="15" y="524" type="line" smooth="yes"/>
      <point x="15" y="413"/>
      <point x="76" y="326"/>
    </contour>
    <contour>
      <point x="197" y="446" type="curve" smooth="yes"/>
      <point x="163" y="446"/>
      <point x="147" y="467"/>
      <point x="147" y="537" type="curve" smooth="yes"/>
      <point x="147" y="610"/>
      <point x="164" y="628"/>
      <point x="197" y="628" type="curve" smooth="yes"/>
      <point x="230" y="628"/>
      <point x="247" y="610"/>
      <point x="247" y="536" type="curve" smooth="yes"/>
      <point x="247" y="467"/>
      <point x="231" y="446"/>
    </contour>
    <contour>
      <point x="707" y="-20" type="curve" smooth="yes"/>
      <point x="828" y="-20"/>
      <point x="889" y="67"/>
      <point x="889" y="178" type="curve" smooth="yes"/>
      <point x="889" y="204" type="line" smooth="yes"/>
      <point x="889" y="321"/>
      <point x="824" y="402"/>
      <point x="707" y="402" type="curve" smooth="yes"/>
      <point x="590" y="402"/>
      <point x="525" y="321"/>
      <point x="525" y="204" type="curve" smooth="yes"/>
      <point x="525" y="178" type="line" smooth="yes"/>
      <point x="525" y="67"/>
      <point x="586" y="-20"/>
    </contour>
    <contour>
      <point x="707" y="100" type="curve" smooth="yes"/>
      <point x="673" y="100"/>
      <point x="657" y="121"/>
      <point x="657" y="191" type="curve" smooth="yes"/>
      <point x="657" y="264"/>
      <point x="674" y="282"/>
      <point x="707" y="282" type="curve" smooth="yes"/>
      <point x="740" y="282"/>
      <point x="757" y="264"/>
      <point x="757" y="190" type="curve" smooth="yes"/>
      <point x="757" y="121"/>
      <point x="741" y="100"/>
    </contour>
  </outline>
</glyph>
<glyph name="ampersand" format="2">
  <advance width="745"/>
  <unicode hex="0026"/>
  <outline>
    <contour>
      <point x="530" y="0" type="line"/>
      <point x="729" y="0" type="line"/>
      <point x="365" y="395" type="line" smooth="yes"/>
      <point x="318" y="447"/>
      <point x="299" y="483"/>
      <point x="299" y="525" type="curve" smooth="yes"/>
      <point x="299" y="566"/>
      <point x="315" y="592"/>
      <point x="388" y="592" type="curve" smooth="yes"/>
      <point x="424" y="592"/>
      <point x="497" y="586"/>
      <point x="537" y="580" type="curve"/>
      <point x="537" y="728" type="line"/>
      <point x="499" y="734"/>
      <point x="447" y="740"/>
      <point x="396" y="740" type="curve" smooth="yes"/>
      <point x="212" y="740"/>
      <point x="133" y="655"/>
      <point x="133" y="535" type="curve" smooth="yes"/>
      <point x="133" y="448"/>
      <point x="167" y="394"/>
      <point x="259" y="294" type="curve" smooth="yes"/>
    </contour>
    <contour>
      <point x="294" y="-22" type="curve" smooth="yes"/>
      <point x="488" y="-22"/>
      <point x="674" y="128"/>
      <point x="674" y="415" type="curve"/>
      <point x="516" y="415" type="line"/>
      <point x="516" y="205"/>
      <point x="413" y="126"/>
      <point x="306" y="126" type="curve" smooth="yes"/>
      <point x="220" y="126"/>
      <point x="186" y="178"/>
      <point x="186" y="243" type="curve" smooth="yes"/>
      <point x="186" y="300"/>
      <point x="211" y="341"/>
      <point x="239" y="363" type="curve"/>
      <point x="169" y="453" type="line"/>
      <point x="80" y="415"/>
      <point x="20" y="334"/>
      <point x="20" y="237" type="curve" smooth="yes"/>
      <point x="20" y="224" type="line" smooth="yes"/>
      <point x="20" y="85"/>
      <point x="130" y="-22"/>
    </contour>
    <contour>
      <point x="429" y="392" type="line"/>
      <point x="721" y="392" type="line"/>
      <point x="721" y="522" type="line"/>
      <point x="429" y="522" type="line"/>
    </contour>
  </outline>
</glyph>
<glyph name="comma" format="2">
  <advance width="276"/>
  <unicode hex="002C"/>
  <outline>
    <contour>
      <point x="139" y="-176" type="line"/>
      <point x="264" y="144" type="line"/>
      <point x="110" y="200" type="line"/>
      <point x="0" y="-122" type="line"/>
    </contour>
  </outline>
</glyph>
<glyph name="slash" format="2">
  <advance width="428"/>
  <unicode hex="002F"/>
  <outline>
    <contour>
      <point x="16" y="-60" type="line"/>
      <point x="204" y="-60" type="line"/>
      <point x="412" y="780" type="line"/>
      <point x="224" y="780" type="line"/>
    </contour>
  </outline>
</glyph>
<glyph name="one" format="2">
  <advance width="430"/>
  <unicode hex="0031"/>
  <outline>
    <contour>
      <point x="166" y="0" type="line"/>
      <point x="352" y="0" type="line"/>
      <point x="352" y="730" type="line"/>
      <point x="30" y="730" type="line"/>
      <point x="30" y="568" type="line"/>
      <point x="210" y="568" type="line"/>
      <point x="166" y="602" type="line"/>
    </contour>
  </outline>
</glyph>
<glyph name="two" format="2">
  <advance width="636"/>
  <unicode hex="0032"/>
  <outline>
    <contour>
      <point x="54" y="0" type="line"/>
      <point x="586" y="0" type="line"/>
      <point x="586" y="160" type="line"/>
      <point x="193" y="160" type="line"/>
      <point x="236" y="132" type="line"/>
      <point x="236" y="168" type="line" smooth="yes"/>
      <point x="236" y="194"/>
      <point x="251" y="209"/>
      <point x="283" y="222" type="curve" smooth="yes"/>
      <point x="394" y="269" type="line" smooth="yes"/>
      <point x="530" y="327"/>
      <point x="588" y="394"/>
      <point x="588" y="508" type="curve" smooth="yes"/>
      <point x="588" y="520" type="line" smooth="yes"/>
      <point x="588" y="651"/>
      <point x="491" y="752"/>
      <point x="316" y="752" type="curve" smooth="yes"/>
      <point x="138" y="752"/>
      <point x="44" y="647"/>
      <point x="44" y="504" type="curve"/>
      <point x="224" y="504" type="line"/>
      <point x="224" y="561"/>
      <point x="255" y="598"/>
      <point x="316" y="598" type="curve" smooth="yes"/>
      <point x="376" y="598"/>
      <point x="408" y="561"/>
      <point x="408" y="514" type="curve" smooth="yes"/>
      <point x="408" y="463"/>
      <point x="383" y="432"/>
      <point x="326" y="408" type="curve" smooth="yes"/>
      <point x="215" y="361" type="line" smooth="yes"/>
      <point x="101" y="313"/>
      <point x="54" y="256"/>
      <point x="54" y="160" type="curve" smooth="yes"/>
    </contour>
  </outline>
</glyph>
<glyph name="question" format="2">
  <advance width="566"/>
  <unicode hex="003F"/>
  <outline>
    <contour>
      <point x="169" y="254" type="line"/>
      <point x="349" y="254" type="line"/>
      <point x="351" y="350" type="line"/>
      <point x="272" y="292" type="line"/>
      <point x="440" y="298"/>
      <point x="538" y="381"/>
      <point x="538" y="514" type="curve" smooth="yes"/>
      <point x="538" y="526" type="line" smooth="yes"/>
      <point x="538" y="661"/>
      <point x="441" y="752"/>
      <point x="286" y="752" type="curve" smooth="yes"/>
      <point x="119" y="752"/>
      <point x="22" y="648"/>
      <point x="22" y="511" type="curve"/>
      <point x="196" y="511" type="line"/>
      <point x="196" y="558"/>
      <point x="226" y="596"/>
      <point x="280" y="596" type="curve" smooth="yes"/>
      <point x="334" y="596"/>
      <point x="364" y="560"/>
      <point x="364" y="511" type="curve" smooth="yes"/>
      <point x="364" y="462"/>
      <point x="334" y="424"/>
      <point x="270" y="424" type="curve" smooth="yes"/>
      <point x="169" y="424" type="line"/>
    </contour>
    <contour>
      <point x="157" y="0" type="line"/>
      <point x="361" y="0" type="line"/>
      <point x="361" y="174" type="line"/>
      <point x="157" y="174" type="line"/>
    </contour>
  </outline>
</glyph>
<glyph name="A" format="2">
  <advance width="790"/>
  <unicode hex="0041"/>
  <anchor x="738" y="10" name="ogonek"/>
  <anchor x="391" y="730" name="top"/>
  <outline>
    <contour>
      <point x="8" y="0" type="line"/>
      <point x="194" y="0" type="line"/>
      <point x="377" y="600" type="line"/>
      <point x="323" y="580" type="line"/>
      <point x="455" y="580" type="line"/>
      <point x="402" y="600" type="line"/>
      <point x="590" y="0" type="line"/>
      <point x="782" y="0" type="line"/>
      <point x="540" y="730" type="line"/>
      <point x="242" y="730" type="line"/>
    </contour>
    <contour>
      <point x="199" y="169" type="line"/>
      <point x="588" y="169" type="line"/>
      <point x="532" y="321" type="line"/>
      <point x="255" y="321" type="line"/>
    </contour>
  </outline>
</glyph>
<glyph name="F" format="2">
  <advance width="560"/>
  <unicode hex="0046"/>
  <outline>
    <contour>
      <point x="74" y="0" type="line"/>
      <point x="260" y="0" type="line"/>
      <point x="260" y="730" type="line"/>
      <point x="74" y="730" type="line"/>
    </contour>
    <contour>
      <point x="240" y="283" type="line"/>
      <point x="511" y="283" type="line"/>
      <point x="511" y="435" type="line"/>
      <point x="240" y="435" type="line"/>
    </contour>
    <contour>
      <point x="240" y="578" type="line"/>
      <point x="522" y="578" type="line"/>
      <point x="522" y="730" type="line"/>
      <point x="240" y="730" type="line"/>
    </contour>
  </outline>
</glyph>
<glyph name="I" format="2">
  <advance width="338"/>
  <unicode hex="0049"/>
  <anchor x="169" y="0" name="bottom"/>
  <anchor x="249" y="10" name="ogonek"/>
  <anchor x="169" y="730" name="top"/>
  <anchor x="-11" y="730" name="topleft"/>
  <outline>
    <contour>
      <point x="76" y="0" type="line"/>
      <point x="262" y="0" type="line"/>
      <point x="262" y="730" type="line"/>
      <point x="76" y="730" type="line"/>
    </contour>
  </outline>
</glyph>
<glyph name="K" format="2">
  <advance width="777"/>
  <unicode hex="004B"/>
  <anchor x="405" y="0" name="bottom"/>
  <anchor x="389" y="730" name="top"/>
  <outline>
    <contour>
      <point x="560" y="0" type="line"/>
      <point x="784" y="0" type="line"/>
      <point x="469" y="453" type="line"/>
      <point x="469" y="382" type="line"/>
      <point x="733" y="730" type="line"/>
      <point x="519" y="730" type="line"/>
      <point x="224" y="341" type="line"/>
      <point x="323" y="341" type="line"/>
    </contour>
    <contour>
      <point x="74" y="0" type="line"/>
      <point x="260" y="0" type="line"/>
      <point x="260" y="730" type="line"/>
      <point x="74" y="730" type="line"/>
    </contour>
  </outline>
</glyph>
<glyph name="N" format="2">
  <advance width="885"/>
  <unicode hex="004E"/>
  <anchor x="438" y="0" name="bottom"/>
  <anchor x="453" y="730" name="top"/>
  <outline>
    <contour>
      <point x="74" y="0" type="line"/>
      <point x="246" y="0" type="line"/>
      <point x="246" y="600" type="line"/>
      <point x="226" y="582" type="line"/>
      <point x="261" y="582" type="line"/>
      <point x="504" y="0" type="line"/>
      <point x="811" y="0" type="line"/>
      <point x="811" y="730" type="line"/>
      <point x="637" y="730" type="line"/>
      <point x="637" y="130" type="line"/>
      <point x="657" y="148" type="line"/>
      <point x="622" y="148" type="line"/>
      <point x="379" y="730" type="line"/>
      <point x="74" y="730" type="line"/>
    </contour>
  </outline>
</glyph>
<glyph name="X" format="2">
  <advance width="730"/>
  <unicode hex="0058"/>
  <outline>
    <contour>
      <point x="6" y="0" type="line"/>
      <point x="204" y="0" type="line"/>
      <point x="345" y="241" type="line"/>
      <point x="371" y="241" type="line"/>
      <point x="520" y="0" type="line"/>
      <point x="724" y="0" type="line"/>
      <point x="474" y="386" type="line"/>
      <point x="477" y="370" type="line"/>
      <point x="700" y="730" type="line"/>
      <point x="502" y="730" type="line"/>
      <point x="381" y="519" type="line"/>
      <point x="355" y="519" type="line"/>
      <point x="230" y="730" type="line"/>
      <point x="26" y="730" type="line"/>
      <point x="250" y="372" type="line"/>
      <point x="248" y="388" type="line"/>
    </contour>
  </outline>
</glyph>
<glyph name="Y" format="2">
  <advance width="658"/>
  <unicode hex="0059"/>
  <anchor x="338" y="0" name="bottom"/>
  <anchor x="334" y="730" name="top"/>
  <outline>
    <contour>
      <point x="211" y="274" type="line"/>
      <point x="465" y="274" type="line"/>
      <point x="654" y="730" type="line"/>
      <point x="474" y="730" type="line"/>
      <point x="351" y="405" type="line"/>
      <point x="379" y="414" type="line"/>
      <point x="307" y="414" type="line"/>
      <point x="333" y="405" type="line"/>
      <point x="194" y="730" type="line"/>
      <point x="4" y="730" type="line"/>
    </contour>
    <contour>
      <point x="247" y="0" type="line"/>
      <point x="429" y="0" type="line"/>
      <point x="429" y="298" type="line"/>
      <point x="247" y="298" type="line"/>
    </contour>
  </outline>
</glyph>
<glyph name="Z" format="2">
  <advance width="645"/>
  <unicode hex="005A"/>
  <anchor x="325" y="0" name="bottom"/>
  <anchor x="317" y="365" name="center"/>
  <anchor x="330" y="730" name="top"/>
  <outline>
    <contour>
      <point x="30" y="0" type="line"/>
      <point x="613" y="0" type="line"/>
      <point x="613" y="152" type="line"/>
      <point x="266" y="152" type="line"/>
      <point x="289" y="132" type="line"/>
      <point x="255" y="177" type="line"/>
      <point x="260" y="158" type="line"/>
      <point x="617" y="606" type="line"/>
      <point x="617" y="730" type="line"/>
      <point x="44" y="730" type="line"/>
      <point x="44" y="578" type="line"/>
      <point x="380" y="578" type="line"/>
      <point x="357" y="598" type="line"/>
      <point x="391" y="554" type="line"/>
      <point x="386" y="572" type="line"/>
      <point x="30" y="124" type="line"/>
    </contour>
  </outline>
</glyph>
<glyph name="backslash" format="2">
  <advance width="428"/>
  <unicode hex="005C"/>
  <outline>
    <contour>
      <point x="230" y="-60" type="line"/>
      <point x="416" y="-60" type="line"/>
      <point x="198" y="780" type="line"/>
      <point x="12" y="780" type="line"/>
    </contour>
  </outline>
</glyph>
<glyph name="underscore" format="2">
  <advance width="594"/>
  <unicode hex="005F"/>
  <outline>
    <contour>
      <point x="0" y="-184" type="line"/>
      <point x="594" y="-184" type="line"/>
      <point x="594" y="-48" type="line"/>
      <point x="0" y="-48" type="line"/>
    </contour>
  </outline>
</glyph>
<glyph name="a" format="2">
  <advance width="600"/>
  <unicode hex="0061"/>
  <anchor x="538" y="10" name="ogonek"/>
  <anchor x="294" y="552" name="top"/>
  <outline>
    <contour>
      <point x="400" y="0" type="line"/>
      <point x="544" y="0" type="line"/>
      <point x="544" y="335" type="line" smooth="yes"/>
      <point x="544" y="488"/>
      <point x="447" y="562"/>
      <point x="277" y="562" type="curve" smooth="yes"/>
      <point x="217" y="562"/>
      <point x="134" y="558"/>
      <point x="86" y="554" type="curve"/>
      <point x="86" y="402" type="line"/>
      <point x="153" y="406"/>
      <point x="256" y="410"/>
      <point x="295" y="410" type="curve" smooth="yes"/>
      <point x="348" y="410"/>
      <point x="370" y="386"/>
      <point x="370" y="335" type="curve" smooth="yes"/>
      <point x="370" y="162" type="line"/>
      <point x="400" y="162" type="line"/>
    </contour>
    <contour>
      <point x="225" y="-14" type="curve" smooth="yes"/>
      <point x="340" y="-14"/>
      <point x="402" y="50"/>
      <point x="412" y="164" type="curve"/>
      <point x="370" y="204" type="line"/>
      <point x="366" y="130"/>
      <point x="330" y="108"/>
      <point x="283" y="108" type="curve" smooth="yes"/>
      <point x="233" y="108"/>
      <point x="206" y="135"/>
      <point x="206" y="175" type="curve" smooth="yes"/>
      <point x="206" y="216"/>
      <point x="234" y="243"/>
      <point x="283" y="243" type="curve" smooth="yes"/>
      <point x="390" y="243" type="line"/>
      <point x="390" y="337" type="line"/>
      <point x="283" y="337" type="line" smooth="yes"/>
      <point x="133" y="337"/>
      <point x="26" y="286"/>
      <point x="26" y="162" type="curve" smooth="yes"/>
      <point x="26" y="51"/>
      <point x="108" y="-14"/>
    </contour>
  </outline>
</glyph>
<glyph name="c" format="2">
  <advance width="613"/>
  <unicode hex="0063"/>
  <anchor x="320" y="0" name="bottom"/>
  <anchor x="318" y="552" name="top"/>
  <outline>
    <contour>
      <point x="318" y="-20" type="curve" smooth="yes"/>
      <point x="469" y="-20"/>
      <point x="579" y="76"/>
      <point x="587" y="216" type="curve"/>
      <point x="409" y="216" type="line"/>
      <point x="403" y="165"/>
      <point x="374" y="134"/>
      <point x="318" y="134" type="curve" smooth="yes"/>
      <point x="242" y="134"/>
      <point x="216" y="191"/>
      <point x="216" y="274" type="curve" smooth="yes"/>
      <point x="216" y="361"/>
      <point x="248" y="418"/>
      <point x="318" y="418" type="curve" smooth="yes"/>
      <point x="372" y="418"/>
      <point x="401" y="383"/>
      <point x="405" y="339" type="curve"/>
      <point x="583" y="339" type="line"/>
      <point x="575" y="475"/>
      <point x="469" y="572"/>
      <point x="318" y="572" type="curve" smooth="yes"/>
      <point x="134" y="572"/>
      <point x="34" y="438"/>
      <point x="34" y="284" type="curve" smooth="yes"/>
      <point x="34" y="264" type="line" smooth="yes"/>
      <point x="34" y="118"/>
      <point x="127" y="-20"/>
    </contour>
  </outline>
</glyph>
<glyph name="h" format="2">
  <advance width="656"/>
  <unicode hex="0068"/>
  <anchor x="333" y="0" name="bottom"/>
  <anchor x="198" y="637" name="center"/>
  <anchor x="157" y="730" name="top"/>
  <outline>
    <contour>
      <point x="66" y="0" type="line"/>
      <point x="248" y="0" type="line"/>
      <point x="248" y="319" type="line" smooth="yes"/>
      <point x="248" y="372"/>
      <point x="283" y="408"/>
      <point x="334" y="408" type="curve" smooth="yes"/>
      <point x="385" y="408"/>
      <point x="418" y="372"/>
      <point x="418" y="321" type="curve" smooth="yes"/>
      <point x="418" y="0" type="line"/>
      <point x="600" y="0" type="line"/>
      <point x="600" y="314" type="line" smooth="yes"/>
      <point x="600" y="482"/>
      <point x="535" y="570"/>
      <point x="415" y="570" type="curve" smooth="yes"/>
      <point x="407" y="570" type="line" smooth="yes"/>
      <point x="287" y="570"/>
      <point x="224" y="482"/>
      <point x="224" y="314" type="curve"/>
      <point x="248" y="314" type="line"/>
      <point x="248" y="730" type="line"/>
      <point x="66" y="730" type="line"/>
    </contour>
  </outline>
</glyph>
<glyph name="k" format="2">
  <advance width="661"/>
  <unicode hex="006B"/>
  <anchor x="346" y="0" name="bottom"/>
  <anchor x="157" y="730" name="top"/>
  <outline>
    <contour>
      <point x="458" y="0" type="line"/>
      <point x="661" y="0" type="line"/>
      <point x="422" y="363" type="line"/>
      <point x="422" y="275" type="line"/>
      <point x="627" y="552" type="line"/>
      <point x="437" y="552" type="line"/>
      <point x="221" y="258" type="line"/>
      <point x="295" y="258" type="line"/>
    </contour>
    <contour>
      <point x="66" y="0" type="line"/>
      <point x="248" y="0" type="line"/>
      <point x="248" y="730" type="line"/>
      <point x="66" y="730" type="line"/>
    </contour>
  </outline>
</glyph>
<glyph name="u" format="2">
  <advance width="650"/>
  <unicode hex="0075"/>
  <anchor x="576" y="10" name="ogonek"/>
  <anchor x="318" y="552" name="top"/>
  <outline>
    <contour>
      <point x="251" y="-18" type="curve" smooth="yes"/>
      <point x="259" y="-18" type="line" smooth="yes"/>
      <point x="383" y="-18"/>
      <point x="448" y="61"/>
      <point x="448" y="232" type="curve"/>
      <point x="438" y="232" type="line"/>
      <point x="438" y="0" type="line"/>
      <point x="582" y="0" type="line"/>
      <point x="582" y="552" type="line"/>
      <point x="400" y="552" type="line"/>
      <point x="400" y="229" type="line" smooth="yes"/>
      <point x="400" y="177"/>
      <point x="366" y="144"/>
      <point x="317" y="144" type="curve" smooth="yes"/>
      <point x="268" y="144"/>
      <point x="236" y="177"/>
      <point x="236" y="227" type="curve" smooth="yes"/>
      <point x="236" y="552" type="line"/>
      <point x="54" y="552" type="line"/>
      <point x="54" y="232" type="line" smooth="yes"/>
      <point x="54" y="62"/>
      <point x="126" y="-18"/>
    </contour>
  </outline>
</glyph>
<glyph name="yen" format="2">
  <advance width="680"/>
  <unicode hex="00A5"/>
  <outline>
    <contour>
      <point x="232" y="294" type="line"/>
      <point x="466" y="294" type="line"/>
      <point x="664" y="730" type="line"/>
      <point x="486" y="730" type="line"/>
      <point x="360" y="425" type="line"/>
      <point x="387" y="434" type="line"/>
      <point x="321" y="434" type="line"/>
      <point x="346" y="425" type="line"/>
      <point x="204" y="730" type="line"/>
      <point x="16" y="730" type="line"/>
    </contour>
    <contour>
      <point x="264" y="0" type="line"/>
      <point x="434" y="0" type="line"/>
      <point x="434" y="318" type="line"/>
      <point x="264" y="318" type="line"/>
    </contour>
    <contour>
      <point x="62" y="142" type="line"/>
      <point x="632" y="142" type="line"/>
      <point x="632" y="228" type="line"/>
      <point x="62" y="228" type="line"/>
    </contour>
    <contour>
      <point x="62" y="294" type="line"/>
      <point x="632" y="294" type="line"/>
      <point x="632" y="380" type="line"/>
      <point x="62" y="380" type="line"/>
    </contour>
  </outline>
</glyph>
<glyph name="degree" format="2">
  <advance width="442"/>
  <unicode hex="00B0"/>
  <outline>
    <contour>
      <point x="221" y="333" type="curve" smooth="yes"/>
      <point x="342" y="333"/>
      <point x="424" y="422"/>
      <point x="424" y="532" type="curve" smooth="yes"/>
      <point x="424" y="641"/>
      <point x="342" y="730"/>
      <point x="221" y="730" type="curve" smooth="yes"/>
      <point x="100" y="730"/>
      <point x="18" y="641"/>
      <point x="18" y="532" type="curve" smooth="yes"/>
      <point x="18" y="422"/>
      <point x="100" y="333"/>
    </contour>
    <contour>
      <point x="221" y="459" type="curve" smooth="yes"/>
      <point x="177" y="459"/>
      <point x="150" y="490"/>
      <point x="150" y="532" type="curve" smooth="yes"/>
      <point x="150" y="573"/>
      <point x="177" y="604"/>
      <point x="221" y="604" type="curve" smooth="yes"/>
      <point x="265" y="604"/>
      <point x="292" y="573"/>
      <point x="292" y="532" type="curve" smooth="yes"/>
      <point x="292" y="490"/>
      <point x="265" y="459"/>
    </contour>
  </outline>
</glyph>
<glyph name="ae" format="2">
  <advance width="958"/>
  <unicode hex="00E6"/>
  <guideline x="435" y="160" angle="0"/>
  <outline>
    <contour>
      <point x="657" y="-20" type="curve" smooth="yes"/>
      <point x="795" y="-20"/>
      <point x="894" y="61"/>
      <point x="918" y="174" type="curve"/>
      <point x="752" y="174" type="line"/>
      <point x="739" y="144"/>
      <point x="704" y="126"/>
      <point x="655" y="126" type="curve" smooth="yes"/>
      <point x="568" y="126"/>
      <point x="532" y="182"/>
      <point x="532" y="273" type="curve" smooth="yes"/>
      <point x="532" y="373"/>
      <point x="576" y="424"/>
      <point x="649" y="424" type="curve" smooth="yes"/>
      <point x="722" y="424"/>
      <point x="760" y="373"/>
      <point x="760" y="280" type="curve"/>
      <point x="823" y="321" type="line"/>
      <point x="514" y="321" type="line"/>
      <point x="514" y="227" type="line"/>
      <point x="928" y="227" type="line"/>
      <point x="928" y="282" type="line" smooth="yes"/>
      <point x="928" y="434"/>
      <point x="828" y="570"/>
      <point x="653" y="570" type="curve" smooth="yes"/>
      <point x="498" y="570"/>
      <point x="425" y="462"/>
      <point x="404" y="342" type="curve"/>
      <point x="516" y="342" type="line"/>
      <point x="512" y="481"/>
      <point x="441" y="561"/>
      <point x="275" y="561" type="curve" smooth="yes"/>
      <point x="215" y="561"/>
      <point x="134" y="557"/>
      <point x="86" y="553" type="curve"/>
      <point x="86" y="401" type="line"/>
      <point x="153" y="405"/>
      <point x="256" y="409"/>
      <point x="295" y="409" type="curve" smooth="yes"/>
      <point x="348" y="409"/>
      <point x="370" y="385"/>
      <point x="370" y="334" type="curve" smooth="yes"/>
      <point x="370" y="208" type="line" smooth="yes"/>
      <point x="370" y="132"/>
      <point x="330" y="107"/>
      <point x="283" y="107" type="curve" smooth="yes"/>
      <point x="233" y="107"/>
      <point x="206" y="134"/>
      <point x="206" y="174" type="curve" smooth="yes"/>
      <point x="206" y="215"/>
      <point x="234" y="242"/>
      <point x="283" y="242" type="curve" smooth="yes"/>
      <point x="390" y="242" type="line"/>
      <point x="390" y="336" type="line"/>
      <point x="283" y="336" type="line" smooth="yes"/>
      <point x="133" y="336"/>
      <point x="26" y="285"/>
      <point x="26" y="161" type="curve" smooth="yes"/>
      <point x="26" y="50"/>
      <point x="110" y="-15"/>
      <point x="232" y="-15" type="curve" smooth="yes"/>
      <point x="352" y="-15"/>
      <point x="446" y="50"/>
      <point x="456" y="165" type="curve"/>
      <point x="404" y="165" type="line"/>
      <point x="432" y="70"/>
      <point x="511" y="-20"/>
    </contour>
  </outline>
</glyph>
<glyph name="idotless" format="2">
  <advance width="342"/>
  <unicode hex="0131"/>
  <anchor x="183" y="0" name="bottom"/>
  <anchor x="250" y="10" name="ogonek"/>
  <anchor x="159" y="552" name="top"/>
  <outline>
    <contour>
      <point x="92" y="0" type="line"/>
      <point x="274" y="0" type="line"/>
      <point x="274" y="552" type="line"/>
      <point x="92" y="552" type="line"/>
    </contour>
    <contour>
      <point x="22" y="420" type="line"/>
      <point x="274" y="420" type="line"/>
      <point x="274" y="552" type="line"/>
      <point x="22" y="552" type="line"/>
    </contour>
  </outline>
</glyph>
<glyph name="Eng" format="2">
  <advance width="885"/>
  <unicode hex="014A"/>
  <outline>
    <contour>
      <point x="448" y="-245" type="line"/>
      <point x="552" y="-245" type="line" smooth="yes"/>
      <point x="744" y="-245"/>
      <point x="811" y="-153"/>
      <point x="811" y="5" type="curve" smooth="yes"/>
      <point x="811" y="730" type="line"/>
      <point x="637" y="730" type="line"/>
      <point x="637" y="150" type="line"/>
      <point x="657" y="168" type="line"/>
      <point x="614" y="168" type="line"/>
      <point x="379" y="730" type="line"/>
      <point x="74" y="730" type="line"/>
      <point x="74" y="0" type="line"/>
      <point x="246" y="0" type="line"/>
      <point x="246" y="600" type="line"/>
      <point x="226" y="582" type="line"/>
      <point x="261" y="582" type="line"/>
      <point x="496" y="20" type="line"/>
      <point x="668" y="20" type="line"/>
      <point x="641" y="48" type="line"/>
      <point x="641" y="0" type="line" smooth="yes"/>
      <point x="641" y="-67"/>
      <point x="609" y="-84"/>
      <point x="562" y="-84" type="curve" smooth="yes"/>
      <point x="448" y="-84" type="line"/>
    </contour>
  </outline>
</glyph>
<glyph name="OE" format="2">
  <advance width="1041"/>
  <unicode hex="0152"/>
  <outline>
    <contour>
      <point x="432" y="-22" type="curve" smooth="yes"/>
      <point x="489" y="-22"/>
      <point x="532" y="-14"/>
      <point x="567" y="0" type="curve"/>
      <point x="703" y="0" type="line"/>
      <point x="703" y="730" type="line"/>
      <point x="567" y="730" type="line"/>
      <point x="530" y="743"/>
      <point x="482" y="752"/>
      <point x="432" y="752" type="curve" smooth="yes"/>
      <point x="170" y="752"/>
      <point x="38" y="560"/>
      <point x="38" y="377" type="curve" smooth="yes"/>
      <point x="38" y="355" type="line" smooth="yes"/>
      <point x="38" y="189"/>
      <point x="162" y="-22"/>
    </contour>
    <contour>
      <point x="432" y="152" type="curve" smooth="yes"/>
      <point x="305" y="152"/>
      <point x="226" y="244"/>
      <point x="226" y="365" type="curve" smooth="yes"/>
      <point x="226" y="492"/>
      <point x="305" y="578"/>
      <point x="432" y="578" type="curve" smooth="yes"/>
      <point x="472" y="578"/>
      <point x="507" y="569"/>
      <point x="534" y="556" type="curve"/>
      <point x="523" y="575" type="line"/>
      <point x="523" y="152" type="line"/>
      <point x="534" y="175" type="line"/>
      <point x="509" y="162"/>
      <point x="470" y="152"/>
    </contour>
    <contour>
      <point x="683" y="0" type="line"/>
      <point x="991" y="0" type="line"/>
      <point x="991" y="152" type="line"/>
      <point x="683" y="152" type="line"/>
    </contour>
    <contour>
      <point x="683" y="295" type="line"/>
      <point x="971" y="295" type="line"/>
      <point x="971" y="447" type="line"/>
      <point x="683" y="447" type="line"/>
    </contour>
    <contour>
      <point x="683" y="578" type="line"/>
      <point x="985" y="578" type="line"/>
      <point x="985" y="730" type="line"/>
      <point x="683" y="730" type="line"/>
    </contour>
  </outline>
</glyph>
<glyph name="jdotless" format="2">
  <advance width="346"/>
  <unicode hex="0237"/>
  <anchor x="160" y="-300" name="bottom"/>
  <anchor x="161" y="552" name="top"/>
  <outline>
    <contour>
      <point x="6" y="-206" type="line"/>
      <point x="30" y="-206" type="line" smooth="yes"/>
      <point x="206" y="-206"/>
      <point x="284" y="-144"/>
      <point x="284" y="22" type="curve" smooth="yes"/>
      <point x="284" y="552" type="line"/>
      <point x="108" y="552" type="line"/>
      <point x="108" y="20" type="line" smooth="yes"/>
      <point x="108" y="-28"/>
      <point x="82" y="-54"/>
      <point x="34" y="-54" type="curve" smooth="yes"/>
      <point x="6" y="-54" type="line"/>
    </contour>
    <contour>
      <point x="34" y="420" type="line"/>
      <point x="284" y="420" type="line"/>
      <point x="284" y="552" type="line"/>
      <point x="34" y="552" type="line"/>
    </contour>
  </outline>
</glyph>
<glyph name="ringcomb" format="2">
  <unicode hex="030A"/>
  <anchor x="133" y="552" name="_top"/>
  <anchor x="133" y="824" name="top"/>
  <outline>
    <contour>
      <point x="133" y="601" type="curve" smooth="yes"/>
      <point x="212" y="601"/>
      <point x="266" y="653"/>
      <point x="266" y="726" type="curve" smooth="yes"/>
      <point x="266" y="799"/>
      <point x="212" y="851"/>
      <point x="133" y="851" type="curve" smooth="yes"/>
      <point x="54" y="851"/>
      <point x="0" y="799"/>
      <point x="0" y="726" type="curve" smooth="yes"/>
      <point x="0" y="653"/>
      <point x="54" y="601"/>
    </contour>
    <contour>
      <point x="133" y="686" type="curve" smooth="yes"/>
      <point x="108" y="686"/>
      <point x="93" y="703"/>
      <point x="93" y="726" type="curve" smooth="yes"/>
      <point x="93" y="749"/>
      <point x="108" y="766"/>
      <point x="133" y="766" type="curve" smooth="yes"/>
      <point x="158" y="766"/>
      <point x="173" y="749"/>
      <point x="173" y="726" type="curve" smooth="yes"/>
      <point x="173" y="703"/>
      <point x="158" y="686"/>
    </contour>
  </outline>
</glyph>
<glyph name="commaturnedabovecomb" format="2">
  <unicode hex="0312"/>
  <anchor x="95" y="552" name="_top"/>
  <anchor x="94" y="774" name="top"/>
  <outline>
    <contour>
      <point x="101" y="594" type="curve" smooth="yes"/>
      <point x="146" y="594"/>
      <point x="187" y="616"/>
      <point x="187" y="669" type="curve" smooth="yes"/>
      <point x="187" y="712"/>
      <point x="160" y="737"/>
      <point x="122" y="737" type="curve" smooth="yes"/>
      <point x="93" y="737"/>
      <point x="75" y="722"/>
      <point x="67" y="704" type="curve"/>
      <point x="94" y="701" type="line"/>
      <point x="94" y="728" type="line" smooth="yes"/>
      <point x="94" y="755"/>
      <point x="107" y="776"/>
      <point x="149" y="776" type="curve" smooth="yes"/>
      <point x="179" y="776" type="line"/>
      <point x="179" y="864" type="line"/>
      <point x="151" y="864" type="line" smooth="yes"/>
      <point x="60" y="864"/>
      <point x="0" y="814"/>
      <point x="0" y="721" type="curve" smooth="yes"/>
      <point x="0" y="715" type="line" smooth="yes"/>
      <point x="0" y="640"/>
      <point x="37" y="594"/>
    </contour>
  </outline>
</glyph>
<glyph name="ogonekcomb" format="2">
  <unicode hex="0328"/>
  <anchor x="236" y="10" name="_ogonek"/>
  <outline>
    <contour>
      <point x="197" y="-242" type="curve" smooth="yes"/>
      <point x="218" y="-242"/>
      <point x="248" y="-239"/>
      <point x="262" y="-235" type="curve"/>
      <point x="262" y="-107" type="line"/>
      <point x="253" y="-111"/>
      <point x="238" y="-114"/>
      <point x="221" y="-114" type="curve" smooth="yes"/>
      <point x="197" y="-114"/>
      <point x="182" y="-103"/>
      <point x="182" y="-84" type="curve" smooth="yes"/>
      <point x="182" y="-67"/>
      <point x="192" y="-52"/>
      <point x="207" y="-36" type="curve" smooth="yes"/>
      <point x="240" y="0" type="line"/>
      <point x="162" y="80" type="line"/>
      <point x="129" y="46" type="line" smooth="yes"/>
      <point x="76" y="-9"/>
      <point x="52" y="-51"/>
      <point x="52" y="-112" type="curve" smooth="yes"/>
      <point x="52" y="-192"/>
      <point x="109" y="-242"/>
    </contour>
  </outline>
</glyph>
<glyph name="emdash" format="2">
  <advance width="918"/>
  <unicode hex="2014"/>
  <outline>
    <contour>
      <point x="18" y="216" type="line"/>
      <point x="900" y="216" type="line"/>
      <point x="900" y="352" type="line"/>
      <point x="18" y="352" type="line"/>
    </contour>
  </outline>
</glyph>
<glyph name="daggerdbl" format="2">
  <advance width="602"/>
  <unicode hex="2021"/>
  <outline>
    <contour>
      <point x="36" y="408" type="line"/>
      <point x="566" y="408" type="line"/>
      <point x="566" y="546" type="line"/>
      <point x="36" y="546" type="line"/>
    </contour>
    <contour>
      <point x="216" y="-200" type="line"/>
      <point x="386" y="-200" type="line"/>
      <point x="386" y="18" type="line"/>
      <point x="216" y="18" type="line"/>
    </contour>
    <contour>
      <point x="36" y="-16" type="line"/>
      <point x="566" y="-16" type="line"/>
      <point x="566" y="122" type="line"/>
      <point x="36" y="122" type="line"/>
    </contour>
    <contour>
      <point x="216" y="182" type="line"/>
      <point x="386" y="182" type="line"/>
      <point x="386" y="348" type="line"/>
      <point x="216" y="348" type="line"/>
    </contour>
    <contour>
      <point x="216" y="512" type="line"/>
      <point x="386" y="512" type="line"/>
      <point x="386" y="730" type="line"/>
      <point x="216" y="730" type="line"/>
    </contour>
  </outline>
</glyph>
<glyph name="perthousand" format="2">
  <advance width="1298"/>
  <unicode hex="2030"/>
  <outline>
    <contour>
      <point x="246" y="0" type="line"/>
      <point x="400" y="0" type="line"/>
      <point x="662" y="730" type="line"/>
      <point x="508" y="730" type="line"/>
    </contour>
    <contour>
      <point x="197" y="326" type="curve" smooth="yes"/>
      <point x="318" y="326"/>
      <point x="379" y="413"/>
      <point x="379" y="524" type="curve" smooth="yes"/>
      <point x="379" y="550" type="line" smooth="yes"/>
      <point x="379" y="667"/>
      <point x="314" y="748"/>
      <point x="197" y="748" type="curve" smooth="yes"/>
      <point x="80" y="748"/>
      <point x="15" y="667"/>
      <point x="15" y="550" type="curve" smooth="yes"/>
      <point x="15" y="524" type="line" smooth="yes"/>
      <point x="15" y="413"/>
      <point x="76" y="326"/>
    </contour>
    <contour>
      <point x="197" y="446" type="curve" smooth="yes"/>
      <point x="163" y="446"/>
      <point x="147" y="467"/>
      <point x="147" y="537" type="curve" smooth="yes"/>
      <point x="147" y="610"/>
      <point x="164" y="628"/>
      <point x="197" y="628" type="curve" smooth="yes"/>
      <point x="230" y="628"/>
      <point x="247" y="610"/>
      <point x="247" y="536" type="curve" smooth="yes"/>
      <point x="247" y="467"/>
      <point x="231" y="446"/>
    </contour>
    <contour>
      <point x="707" y="-20" type="curve" smooth="yes"/>
      <point x="828" y="-20"/>
      <point x="889" y="67"/>
      <point x="889" y="178" type="curve" smooth="yes"/>
      <point x="889" y="204" type="line" smooth="yes"/>
      <point x="889" y="321"/>
      <point x="824" y="402"/>
      <point x="707" y="402" type="curve" smooth="yes"/>
      <point x="590" y="402"/>
      <point x="525" y="321"/>
      <point x="525" y="204" type="curve" smooth="yes"/>
      <point x="525" y="178" type="line" smooth="yes"/>
      <point x="525" y="67"/>
      <point x="586" y="-20"/>
    </contour>
    <contour>
      <point x="707" y="100" type="curve" smooth="yes"/>
      <point x="673" y="100"/>
      <point x="657" y="121"/>
      <point x="657" y="191" type="curve" smooth="yes"/>
      <point x="657" y="264"/>
      <point x="674" y="282"/>
      <point x="707" y="282" type="curve" smooth="yes"/>
      <point x="740" y="282"/>
      <point x="757" y="264"/>
      <point x="757" y="190" type="curve" smooth="yes"/>
      <point x="757" y="121"/>
      <point x="741" y="100"/>
    </contour>
    <contour>
      <point x="1101" y="-20" type="curve" smooth="yes"/>
      <point x="1222" y="-20"/>
      <point x="1283" y="67"/>
      <point x="1283" y="178" type="curve" smooth="yes"/>
      <point x="1283" y="204" type="line" smooth="yes"/>
      <point x="1283" y="321"/>
      <point x="1218" y="402"/>
      <point x="1101" y="402" type="curve" smooth="yes"/>
      <point x="984" y="402"/>
      <point x="919" y="321"/>
      <point x="919" y="204" type="curve" smooth="yes"/>
      <point x="919" y="178" type="line" smooth="yes"/>
      <point x="919" y="67"/>
      <point x="980" y="-20"/>
    </contour>
    <contour>
      <point x="1101" y="100" type="curve" smooth="yes"/>
      <point x="1067" y="100"/>
      <point x="1051" y="121"/>
      <point x="1051" y="191" type="curve" smooth="yes"/>
      <point x="1051" y="264"/>
      <point x="1068" y="282"/>
      <point x="1101" y="282" type="curve" smooth="yes"/>
      <point x="1134" y="282"/>
      <point x="1151" y="264"/>
      <point x="1151" y="190" type="curve" smooth="yes"/>
      <point x="1151" y="121"/>
      <point x="1135" y="100"/>
    </contour>
  </outline>
</glyph>
<glyph name="minus" format="2">
  <advance width="598"/>
  <unicode hex="2212"/>
  <outline>
    <contour>
      <point x="44" y="270" type="line"/>
      <point x="554" y="270" type="line"/>
      <point x="554" y="418" type="line"/>
      <point x="44" y="418" type="line"/>
    </contour>
  </outline>
</glyph>
<glyph name="lessequal" format="2">
  <advance width="590"/>
  <unicode hex="2264"/>
  <outline>
    <contour>
      <point x="68" y="21" type="line"/>
      <point x="530" y="21" type="line"/>
      <point x="530" y="163" type="line"/>
      <point x="68" y="163" type="line"/>
    </contour>
    <contour>
      <point x="530" y="210" type="line"/>
      <point x="530" y="360" type="line"/>
      <point x="68" y="465" type="line"/>
      <point x="68" y="333" type="line"/>
    </contour>
    <contour>
      <point x="68" y="409" type="line"/>
      <point x="530" y="515" type="line"/>
      <point x="530" y="661" type="line"/>
      <point x="68" y="537" type="line"/>
    </contour>
    <contour>
      <point x="182" y="392" type="line"/>
      <point x="212" y="392" type="line"/>
      <point x="212" y="474" type="line"/>
      <point x="182" y="474" type="line"/>
    </contour>
  </outline>
</glyph>
<glyph name="J.salt" format="2">
  <advance width="612"/>
  <anchor x="285" y="0" name="bottom"/>
  <anchor x="453" y="730" name="top"/>
  <outline>
    <contour>
      <point x="286" y="-22" type="curve" smooth="yes"/>
      <point x="460" y="-22"/>
      <point x="546" y="79"/>
      <point x="546" y="247" type="curve" smooth="yes"/>
      <point x="546" y="730" type="line"/>
      <point x="360" y="730" type="line"/>
      <point x="360" y="227" type="line" smooth="yes"/>
      <point x="360" y="181"/>
      <point x="332" y="152"/>
      <point x="286" y="152" type="curve" smooth="yes"/>
      <point x="240" y="152"/>
      <point x="211" y="181"/>
      <point x="211" y="227" type="curve" smooth="yes"/>
      <point x="211" y="336" type="line"/>
      <point x="25" y="336" type="line"/>
      <point x="25" y="247" type="line" smooth="yes"/>
      <point x="25" y="79"/>
      <point x="111" y="-22"/>
    </contour>
  </outline>
</glyph>
<glyph name="P.salt" format="2">
  <advance width="711"/>
  <outline>
    <contour>
      <point x="240" y="240" type="line"/>
      <point x="408" y="240" type="line" smooth="yes"/>
      <point x="571" y="240"/>
      <point x="691" y="319"/>
      <point x="691" y="480" type="curve" smooth="yes"/>
      <point x="691" y="496" type="line" smooth="yes"/>
      <point x="691" y="657"/>
      <point x="570" y="736"/>
      <point x="408" y="736" type="curve" smooth="yes"/>
      <point x="240" y="736" type="line"/>
      <point x="240" y="576" type="line"/>
      <point x="415" y="576" type="line" smooth="yes"/>
      <point x="472" y="576"/>
      <point x="503" y="545"/>
      <point x="503" y="488" type="curve" smooth="yes"/>
      <point x="503" y="431"/>
      <point x="473" y="400"/>
      <point x="415" y="400" type="curve" smooth="yes"/>
      <point x="240" y="400" type="line"/>
    </contour>
    <contour>
      <point x="74" y="0" type="line"/>
      <point x="260" y="0" type="line"/>
      <point x="260" y="736" type="line"/>
      <point x="74" y="736" type="line"/>
    </contour>
  </outline>
</glyph>
<glyph name="R.salt" format="2">
  <advance width="749"/>
  <anchor x="381" y="0" name="bottom"/>
  <anchor x="364" y="730" name="top"/>
  <outline>
    <contour>
      <point x="74" y="0" type="line"/>
      <point x="260" y="0" type="line"/>
      <point x="260" y="736" type="line"/>
      <point x="74" y="736" type="line"/>
    </contour>
    <contour>
      <point x="506" y="0" type="line"/>
      <point x="713" y="0" type="line"/>
      <point x="569" y="304" type="line"/>
      <point x="366" y="304" type="line"/>
    </contour>
    <contour>
      <point x="240" y="253" type="line"/>
      <point x="412" y="253" type="line" smooth="yes"/>
      <point x="575" y="253"/>
      <point x="695" y="325"/>
      <point x="695" y="486" type="curve" smooth="yes"/>
      <point x="695" y="502" type="line" smooth="yes"/>
      <point x="695" y="663"/>
      <point x="574" y="736"/>
      <point x="412" y="736" type="curve" smooth="yes"/>
      <point x="240" y="736" type="line"/>
      <point x="240" y="576" type="line"/>
      <point x="418" y="576" type="line" smooth="yes"/>
      <point x="475" y="576"/>
      <point x="507" y="544"/>
      <point x="507" y="486" type="curve" smooth="yes"/>
      <point x="507" y="428"/>
      <point x="476" y="396"/>
      <point x="418" y="396" type="curve" smooth="yes"/>
      <point x="240" y="396" type="line"/>
    </contour>
  </outline>
</glyph>
<glyph name="braceleft.case" format="2">
  <advance width="398"/>
  <outline>
    <contour>
      <point x="340" y="-118" type="curve" smooth="yes"/>
      <point x="366" y="-118" type="line"/>
      <point x="366" y="34" type="line"/>
      <point x="340" y="34" type="line" smooth="yes"/>
      <point x="301" y="34"/>
      <point x="288" y="51"/>
      <point x="288" y="82" type="curve" smooth="yes"/>
      <point x="288" y="217" type="line" smooth="yes"/>
      <point x="288" y="299"/>
      <point x="253" y="332"/>
      <point x="182" y="338" type="curve"/>
      <point x="182" y="354" type="line"/>
      <point x="253" y="360"/>
      <point x="288" y="393"/>
      <point x="288" y="475" type="curve" smooth="yes"/>
      <point x="288" y="606" type="line" smooth="yes"/>
      <point x="288" y="637"/>
      <point x="301" y="654"/>
      <point x="340" y="654" type="curve" smooth="yes"/>
      <point x="366" y="654" type="line"/>
      <point x="366" y="806" type="line"/>
      <point x="340" y="806" type="line" smooth="yes"/>
      <point x="202" y="806"/>
      <point x="116" y="750"/>
      <point x="116" y="608" type="curve" smooth="yes"/>
      <point x="116" y="486" type="line" smooth="yes"/>
      <point x="116" y="445"/>
      <point x="91" y="426"/>
      <point x="38" y="426" type="curve"/>
      <point x="38" y="266" type="line"/>
      <point x="91" y="266"/>
      <point x="116" y="247"/>
      <point x="116" y="206" type="curve" smooth="yes"/>
      <point x="116" y="80" type="line" smooth="yes"/>
      <point x="116" y="-62"/>
      <point x="202" y="-118"/>
    </contour>
  </outline>
</glyph>
<glyph name="bracketleft.case" format="2">
  <advance width="398"/>
  <outline>
    <contour>
      <point x="78" y="-118" type="line"/>
      <point x="252" y="-118" type="line"/>
      <point x="252" y="806" type="line"/>
      <point x="78" y="806" type="line"/>
    </contour>
    <contour>
      <point x="204" y="-118" type="line"/>
      <point x="360" y="-118" type="line"/>
      <point x="360" y="34" type="line"/>
      <point x="204" y="34" type="line"/>
    </contour>
    <contour>
      <point x="204" y="654" type="line"/>
      <point x="360" y="654" type="line"/>
      <point x="360" y="806" type="line"/>
      <point x="204" y="806" type="line"/>
    </contour>
  </outline>
</glyph>
<glyph name="brevecomb.case" format="2">
  <anchor x="201" y="730" name="_top"/>
  <anchor x="202" y="968" name="top"/>
  <outline>
    <contour>
      <point x="201" y="772" type="curve" smooth="yes"/>
      <point x="329" y="772"/>
      <point x="396" y="847"/>
      <point x="400" y="968" type="curve"/>
      <point x="274" y="968" type="line"/>
      <point x="272" y="920"/>
      <point x="249" y="894"/>
      <point x="201" y="894" type="curve" smooth="yes"/>
      <point x="153" y="894"/>
      <point x="132" y="920"/>
      <point x="130" y="968" type="curve"/>
      <point x="0" y="968" type="line"/>
      <point x="4" y="847"/>
      <point x="73" y="772"/>
    </contour>
  </outline>
</glyph>
<glyph name="cedillacomb.case" format="2">
  <anchor x="97" y="0" name="_bottom"/>
  <anchor x="95" y="-300" name="bottom"/>
  <outline>
    <contour>
      <point x="90" y="-286" type="curve" smooth="yes"/>
      <point x="199" y="-286"/>
      <point x="258" y="-227"/>
      <point x="258" y="-152" type="curve" smooth="yes"/>
      <point x="258" y="-78"/>
      <point x="198" y="-42"/>
      <point x="101" y="-42" type="curve" smooth="yes"/>
      <point x="88" y="-42" type="line"/>
      <point x="155" y="-87" type="line"/>
      <point x="155" y="14" type="line"/>
      <point x="39" y="14" type="line"/>
      <point x="39" y="-128" type="line"/>
      <point x="97" y="-128" type="line" smooth="yes"/>
      <point x="126" y="-128"/>
      <point x="138" y="-134"/>
      <point x="138" y="-147" type="curve" smooth="yes"/>
      <point x="138" y="-164"/>
      <point x="119" y="-172"/>
      <point x="81" y="-172" type="curve" smooth="yes"/>
      <point x="48" y="-172"/>
      <point x="20" y="-166"/>
      <point x="0" y="-159" type="curve"/>
      <point x="0" y="-273" type="line"/>
      <point x="18" y="-280"/>
      <point x="54" y="-286"/>
    </contour>
  </outline>
</glyph>
<glyph name="commaaccentcomb.case" format="2">
  <anchor x="85" y="0" name="_bottom"/>
  <anchor x="91" y="-300" name="bottom"/>
  <outline>
    <contour>
      <point x="9" y="-314" type="line"/>
      <point x="40" y="-314" type="line" smooth="yes"/>
      <point x="133" y="-314"/>
      <point x="193" y="-266"/>
      <point x="193" y="-171" type="curve" smooth="yes"/>
      <point x="193" y="-165" type="line" smooth="yes"/>
      <point x="193" y="-90"/>
      <point x="155" y="-44"/>
      <point x="89" y="-44" type="curve" smooth="yes"/>
      <point x="42" y="-44"/>
      <point x="0" y="-65"/>
      <point x="0" y="-119" type="curve" smooth="yes"/>
      <point x="0" y="-162"/>
      <point x="28" y="-187"/>
      <point x="66" y="-187" type="curve" smooth="yes"/>
      <point x="95" y="-187"/>
      <point x="114" y="-172"/>
      <point x="122" y="-154" type="curve"/>
      <point x="99" y="-151" type="line"/>
      <point x="99" y="-178" type="line" smooth="yes"/>
      <point x="99" y="-207"/>
      <point x="86" y="-226"/>
      <point x="42" y="-226" type="curve" smooth="yes"/>
      <point x="9" y="-226" type="line"/>
    </contour>
  </outline>
</glyph>
<glyph name="dotaccentcomb.case" format="2">
  <anchor x="96" y="730" name="_top"/>
  <anchor x="96" y="966" name="top"/>
  <outline>
    <contour>
      <point x="96" y="790" type="curve" smooth="yes"/>
      <point x="162" y="790"/>
      <point x="192" y="827"/>
      <point x="192" y="880" type="curve" smooth="yes"/>
      <point x="192" y="933"/>
      <point x="162" y="970"/>
      <point x="96" y="970" type="curve" smooth="yes"/>
      <point x="30" y="970"/>
      <point x="0" y="933"/>
      <point x="0" y="880" type="curve" smooth="yes"/>
      <point x="0" y="827"/>
      <point x="30" y="790"/>
    </contour>
  </outline>
</glyph>
<glyph name="endash.case" format="2">
  <advance width="530"/>
  <outline>
    <contour>
      <point x="18" y="290" type="line"/>
      <point x="512" y="290" type="line"/>
      <point x="512" y="426" type="line"/>
      <point x="18" y="426" type="line"/>
    </contour>
  </outline>
</glyph>
<glyph name="f_f" format="2">
  <advance width="742"/>
  <outline>
    <contour>
      <point x="76" y="0" type="line"/>
      <point x="244" y="0" type="line"/>
      <point x="244" y="564" type="line" smooth="yes"/>
      <point x="244" y="596"/>
      <point x="262" y="614"/>
      <point x="294" y="614" type="curve" smooth="yes"/>
      <point x="347" y="614" type="line"/>
      <point x="347" y="748" type="line"/>
      <point x="298" y="748" type="line" smooth="yes"/>
      <point x="151" y="748"/>
      <point x="76" y="685"/>
      <point x="76" y="556" type="curve" smooth="yes"/>
    </contour>
    <contour>
      <point x="441" y="0" type="line"/>
      <point x="609" y="0" type="line"/>
      <point x="609" y="558" type="line" smooth="yes"/>
      <point x="609" y="590"/>
      <point x="627" y="608"/>
      <point x="659" y="608" type="curve" smooth="yes"/>
      <point x="730" y="608" type="line"/>
      <point x="730" y="742" type="line"/>
      <point x="663" y="742" type="line" smooth="yes"/>
      <point x="516" y="742"/>
      <point x="441" y="679"/>
      <point x="441" y="550" type="curve" smooth="yes"/>
    </contour>
    <contour>
      <point x="16" y="408" type="line"/>
      <point x="738" y="408" type="line"/>
      <point x="738" y="540" type="line"/>
      <point x="16" y="540" type="line"/>
    </contour>
  </outline>
</glyph>
<glyph name="f_f_i.salt" format="2">
  <advance width="1078"/>
  <outline>
    <contour>
      <point x="76" y="0" type="line"/>
      <point x="244" y="0" type="line"/>
      <point x="244" y="590" type="line" smooth="yes"/>
      <point x="244" y="606"/>
      <point x="250" y="619"/>
      <point x="267" y="619" type="curve" smooth="yes"/>
      <point x="284" y="619"/>
      <point x="290" y="606"/>
      <point x="290" y="590" type="curve"/>
      <point x="424" y="590" type="line"/>
      <point x="424" y="687"/>
      <point x="355" y="746"/>
      <point x="251" y="746" type="curve" smooth="yes"/>
      <point x="141" y="746"/>
      <point x="76" y="682"/>
      <point x="76" y="580" type="curve" smooth="yes"/>
    </contour>
    <contour>
      <point x="454" y="0" type="line"/>
      <point x="622" y="0" type="line"/>
      <point x="622" y="596" type="line" smooth="yes"/>
      <point x="622" y="612"/>
      <point x="629" y="625"/>
      <point x="645" y="625" type="curve" smooth="yes"/>
      <point x="661" y="625"/>
      <point x="668" y="612"/>
      <point x="668" y="596" type="curve"/>
      <point x="802" y="596" type="line"/>
      <point x="802" y="693"/>
      <point x="733" y="752"/>
      <point x="628" y="752" type="curve" smooth="yes"/>
      <point x="517" y="752"/>
      <point x="454" y="688"/>
      <point x="454" y="586" type="curve" smooth="yes"/>
    </contour>
    <contour>
      <point x="828" y="0" type="line"/>
      <point x="1010" y="0" type="line"/>
      <point x="1010" y="552" type="line"/>
      <point x="828" y="552" type="line"/>
    </contour>
    <contour>
      <point x="16" y="408" type="line"/>
      <point x="734" y="408" type="line"/>
      <point x="734" y="540" type="line"/>
      <point x="16" y="540" type="line"/>
    </contour>
    <contour>
      <point x="778" y="420" type="line"/>
      <point x="1010" y="420" type="line"/>
      <point x="1010" y="552" type="line"/>
      <point x="778" y="552" type="line"/>
    </contour>
    <contour>
      <point x="916" y="600" type="curve" smooth="yes"/>
      <point x="981" y="600"/>
      <point x="1010" y="637"/>
      <point x="1010" y="689" type="curve" smooth="yes"/>
      <point x="1010" y="741"/>
      <point x="981" y="778"/>
      <point x="916" y="778" type="curve" smooth="yes"/>
      <point x="851" y="778"/>
      <point x="822" y="741"/>
      <point x="822" y="689" type="curve" smooth="yes"/>
      <point x="822" y="637"/>
      <point x="851" y="600"/>
    </contour>
  </outline>
</glyph>
<glyph name="f_f_l.salt" format="2">
  <advance width="1108"/>
  <outline>
    <contour>
      <point x="76" y="0" type="line"/>
      <point x="244" y="0" type="line"/>
      <point x="244" y="590" type="line" smooth="yes"/>
      <point x="244" y="606"/>
      <point x="250" y="619"/>
      <point x="267" y="619" type="curve" smooth="yes"/>
      <point x="284" y="619"/>
      <point x="290" y="606"/>
      <point x="290" y="590" type="curve"/>
      <point x="424" y="590" type="line"/>
      <point x="424" y="687"/>
      <point x="355" y="746"/>
      <point x="251" y="746" type="curve" smooth="yes"/>
      <point x="141" y="746"/>
      <point x="76" y="682"/>
      <point x="76" y="580" type="curve" smooth="yes"/>
    </contour>
    <contour>
      <point x="454" y="0" type="line"/>
      <point x="622" y="0" type="line"/>
      <point x="622" y="596" type="line" smooth="yes"/>
      <point x="622" y="612"/>
      <point x="629" y="625"/>
      <point x="645" y="625" type="curve" smooth="yes"/>
      <point x="661" y="625"/>
      <point x="668" y="612"/>
      <point x="668" y="596" type="curve"/>
      <point x="802" y="596" type="line"/>
      <point x="802" y="693"/>
      <point x="733" y="752"/>
      <point x="628" y="752" type="curve" smooth="yes"/>
      <point x="517" y="752"/>
      <point x="454" y="688"/>
      <point x="454" y="586" type="curve" smooth="yes"/>
    </contour>
    <contour>
      <point x="1020" y="-6" type="curve" smooth="yes"/>
      <point x="1086" y="-6" type="line"/>
      <point x="1086" y="150" type="line"/>
      <point x="1039" y="150" type="line" smooth="yes"/>
      <point x="1017" y="150"/>
      <point x="1006" y="161"/>
      <point x="1006" y="183" type="curve" smooth="yes"/>
      <point x="1006" y="730" type="line"/>
      <point x="824" y="730" type="line"/>
      <point x="824" y="183" type="line" smooth="yes"/>
      <point x="824" y="51"/>
      <point x="868" y="-6"/>
    </contour>
    <contour>
      <point x="16" y="408" type="line"/>
      <point x="752" y="408" type="line"/>
      <point x="752" y="540" type="line"/>
      <point x="16" y="540" type="line"/>
    </contour>
  </outline>
</glyph>
<glyph name="f_j" format="2">
  <advance width="700"/>
  <outline>
    <contour>
      <point x="76" y="0" type="line"/>
      <point x="244" y="0" type="line"/>
      <point x="244" y="564" type="line" smooth="yes"/>
      <point x="244" y="596"/>
      <point x="262" y="614"/>
      <point x="294" y="614" type="curve" smooth="yes"/>
      <point x="351" y="614" type="line"/>
      <point x="351" y="748" type="line"/>
      <point x="298" y="748" type="line" smooth="yes"/>
      <point x="151" y="748"/>
      <point x="76" y="685"/>
      <point x="76" y="556" type="curve" smooth="yes"/>
    </contour>
    <contour>
      <point x="362" y="-204" type="line"/>
      <point x="384" y="-204" type="line" smooth="yes"/>
      <point x="560" y="-204"/>
      <point x="638" y="-142"/>
      <point x="638" y="24" type="curve" smooth="yes"/>
      <point x="638" y="552" type="line"/>
      <point x="462" y="552" type="line"/>
      <point x="462" y="22" type="line" smooth="yes"/>
      <point x="462" y="-26"/>
      <point x="436" y="-52"/>
      <point x="388" y="-52" type="curve" smooth="yes"/>
      <point x="362" y="-52" type="line"/>
    </contour>
    <contour>
      <point x="16" y="414" type="line"/>
      <point x="359" y="414" type="line"/>
      <point x="359" y="546" type="line"/>
      <point x="16" y="546" type="line"/>
    </contour>
    <contour>
      <point x="399" y="420" type="line"/>
      <point x="638" y="420" type="line"/>
      <point x="638" y="552" type="line"/>
      <point x="399" y="552" type="line"/>
    </contour>
    <contour>
      <point x="531" y="596" type="curve" smooth="yes"/>
      <point x="597" y="596"/>
      <point x="627" y="634"/>
      <point x="627" y="687" type="curve" smooth="yes"/>
      <point x="627" y="740"/>
      <point x="597" y="778"/>
      <point x="531" y="778" type="curve" smooth="yes"/>
      <point x="465" y="778"/>
      <point x="435" y="740"/>
      <point x="435" y="687" type="curve" smooth="yes"/>
      <point x="435" y="634"/>
      <point x="465" y="596"/>
    </contour>
  </outline>
</glyph>
<glyph name="fi.salt" format="2">
  <advance width="700"/>
  <outline>
    <contour>
      <point x="76" y="0" type="line"/>
      <point x="244" y="0" type="line"/>
      <point x="244" y="596" type="line" smooth="yes"/>
      <point x="244" y="612"/>
      <point x="251" y="625"/>
      <point x="267" y="625" type="curve" smooth="yes"/>
      <point x="283" y="625"/>
      <point x="290" y="612"/>
      <point x="290" y="596" type="curve"/>
      <point x="424" y="596" type="line"/>
      <point x="424" y="693"/>
      <point x="355" y="752"/>
      <point x="250" y="752" type="curve" smooth="yes"/>
      <point x="139" y="752"/>
      <point x="76" y="688"/>
      <point x="76" y="586" type="curve" smooth="yes"/>
    </contour>
    <contour>
      <point x="16" y="408" type="line"/>
      <point x="356" y="408" type="line"/>
      <point x="356" y="540" type="line"/>
      <point x="16" y="540" type="line"/>
    </contour>
    <contour>
      <point x="450" y="0" type="line"/>
      <point x="632" y="0" type="line"/>
      <point x="632" y="552" type="line"/>
      <point x="450" y="552" type="line"/>
    </contour>
    <contour>
      <point x="400" y="420" type="line"/>
      <point x="632" y="420" type="line"/>
      <point x="632" y="552" type="line"/>
      <point x="400" y="552" type="line"/>
    </contour>
    <contour>
      <point x="538" y="600" type="curve" smooth="yes"/>
      <point x="603" y="600"/>
      <point x="632" y="637"/>
      <point x="632" y="689" type="curve" smooth="yes"/>
      <point x="632" y="741"/>
      <point x="603" y="778"/>
      <point x="538" y="778" type="curve" smooth="yes"/>
      <point x="473" y="778"/>
      <point x="444" y="741"/>
      <point x="444" y="689" type="curve" smooth="yes"/>
      <point x="444" y="637"/>
      <point x="473" y="600"/>
    </contour>
  </outline>
</glyph>
<glyph name="minus.tnum" format="2">
  <advance width="676"/>
  <outline>
    <contour>
      <point x="70" y="270" type="line"/>
      <point x="606" y="270" type="line"/>
      <point x="606" y="418" type="line"/>
      <point x="70" y="418" type="line"/>
    </contour>
  </outline>
</glyph>
<glyph name="multiply.tnum" format="2">
  <advance width="676"/>
  <outline>
    <contour>
      <point x="167" y="73" type="line"/>
      <point x="66" y="174" type="line"/>
      <point x="509" y="616" type="line"/>
      <point x="610" y="515" type="line"/>
    </contour>
    <contour>
      <point x="505" y="73" type="line"/>
      <point x="66" y="511" type="line"/>
      <point x="171" y="616" type="line"/>
      <point x="610" y="178" type="line"/>
    </contour>
  </outline>
</glyph>
<glyph name="ogonekcomb.case" format="2">
  <anchor x="238" y="10" name="_ogonek"/>
  <outline>
    <contour>
      <point x="194" y="-258" type="curve" smooth="yes"/>
      <point x="219" y="-258"/>
      <point x="248" y="-255"/>
      <point x="262" y="-251" type="curve"/>
      <point x="262" y="-119" type="line"/>
      <point x="252" y="-124"/>
      <point x="237" y="-128"/>
      <point x="219" y="-128" type="curve" smooth="yes"/>
      <point x="193" y="-128"/>
      <point x="176" y="-114"/>
      <point x="176" y="-90" type="curve" smooth="yes"/>
      <point x="176" y="-69"/>
      <point x="191" y="-48"/>
      <point x="211" y="-29" type="curve" smooth="yes"/>
      <point x="241" y="0" type="line"/>
      <point x="161" y="82" type="line"/>
      <point x="131" y="55" type="line" smooth="yes"/>
      <point x="70" y="1"/>
      <point x="40" y="-50"/>
      <point x="40" y="-117" type="curve" smooth="yes"/>
      <point x="40" y="-201"/>
      <point x="105" y="-258"/>
    </contour>
  </outline>
</glyph>
<glyph name="one.tnum" format="2">
  <advance width="676"/>
  <outline>
    <contour>
      <point x="272" y="0" type="line"/>
      <point x="458" y="0" type="line"/>
      <point x="458" y="730" type="line"/>
      <point x="94" y="730" type="line"/>
      <point x="94" y="568" type="line"/>
      <point x="316" y="568" type="line"/>
      <point x="272" y="602" type="line"/>
    </contour>
    <contour>
      <point x="74" y="0" type="line"/>
      <point x="622" y="0" type="line"/>
      <point x="622" y="162" type="line"/>
      <point x="74" y="162" type="line"/>
    </contour>
  </outline>
</glyph>
<glyph name="seven.tnum.salt" format="2">
  <advance width="676"/>
  <outline>
    <contour>
      <point x="205" y="0" type="line"/>
      <point x="391" y="0" type="line"/>
      <point x="391" y="143" type="line" smooth="yes"/>
      <point x="391" y="313"/>
      <point x="445" y="413"/>
      <point x="613" y="495" type="curve"/>
      <point x="613" y="730" type="line"/>
      <point x="53" y="730" type="line"/>
      <point x="53" y="570" type="line"/>
      <point x="429" y="570" type="line"/>
      <point x="437" y="548" type="line"/>
      <point x="287" y="473"/>
      <point x="205" y="336"/>
      <point x="205" y="143" type="curve" smooth="yes"/>
    </contour>
  </outline>
</glyph>
<glyph name="two.tnum" format="2">
  <advance width="676"/>
  <outline>
    <contour>
      <point x="70" y="1" type="line"/>
      <point x="610" y="1" type="line"/>
      <point x="610" y="161" type="line"/>
      <point x="209" y="161" type="line"/>
      <point x="250" y="132" type="line"/>
      <point x="250" y="170" type="line" smooth="yes"/>
      <point x="250" y="194"/>
      <point x="260" y="208"/>
      <point x="294" y="221" type="curve" smooth="yes"/>
      <point x="411" y="266" type="line" smooth="yes"/>
      <point x="544" y="317"/>
      <point x="612" y="392"/>
      <point x="612" y="508" type="curve" smooth="yes"/>
      <point x="612" y="520" type="line" smooth="yes"/>
      <point x="612" y="650"/>
      <point x="513" y="752"/>
      <point x="336" y="752" type="curve" smooth="yes"/>
      <point x="156" y="752"/>
      <point x="60" y="647"/>
      <point x="60" y="504" type="curve"/>
      <point x="240" y="504" type="line"/>
      <point x="240" y="561"/>
      <point x="274" y="598"/>
      <point x="336" y="598" type="curve" smooth="yes"/>
      <point x="397" y="598"/>
      <point x="432" y="561"/>
      <point x="432" y="514" type="curve" smooth="yes"/>
      <point x="432" y="463"/>
      <point x="411" y="430"/>
      <point x="354" y="408" type="curve" smooth="yes"/>
      <point x="237" y="363" type="line" smooth="yes"/>
      <point x="117" y="317"/>
      <point x="70" y="256"/>
      <point x="70" y="162" type="curve" smooth="yes"/>
    </contour>
  </outline>
</glyph>
<glyph name="u.salt" format="2">
  <advance width="626"/>
  <anchor x="313" y="0" name="bottom"/>
  <anchor x="424" y="10" name="ogonek"/>
  <anchor x="313" y="534" name="top"/>
  <anchor x="596" y="534" name="topright"/>
  <outline>
    <contour>
      <point x="313" y="-20" type="curve" smooth="yes"/>
      <point x="487" y="-20"/>
      <point x="578" y="66"/>
      <point x="578" y="230" type="curve" smooth="yes"/>
      <point x="578" y="552" type="line"/>
      <point x="396" y="552" type="line"/>
      <point x="396" y="225" type="line" smooth="yes"/>
      <point x="396" y="175"/>
      <point x="363" y="142"/>
      <point x="313" y="142" type="curve" smooth="yes"/>
      <point x="263" y="142"/>
      <point x="230" y="175"/>
      <point x="230" y="225" type="curve" smooth="yes"/>
      <point x="230" y="552" type="line"/>
      <point x="48" y="552" type="line"/>
      <point x="48" y="230" type="line" smooth="yes"/>
      <point x="48" y="66"/>
      <point x="139" y="-20"/>
    </contour>
  </outline>
</glyph>
<glyph name="yen.tnum" format="2">
  <advance width="676"/>
  <outline>
    <contour>
      <point x="230" y="294" type="line"/>
      <point x="464" y="294" type="line"/>
      <point x="656" y="730" type="line"/>
      <point x="478" y="730" type="line"/>
      <point x="358" y="433" type="line"/>
      <point x="385" y="442" type="line"/>
      <point x="319" y="442" type="line"/>
      <point x="344" y="433" type="line"/>
      <point x="208" y="730" type="line"/>
      <point x="20" y="730" type="line"/>
    </contour>
    <contour>
      <point x="262" y="0" type="line"/>
      <point x="432" y="0" type="line"/>
      <point x="432" y="318" type="line"/>
      <point x="262" y="318" type="line"/>
    </contour>
    <contour>
      <point x="64" y="142" type="line"/>
      <point x="626" y="142" type="line"/>
      <point x="626" y="228" type="line"/>
      <point x="64" y="228" type="line"/>
    </contour>
    <contour>
      <point x="64" y="294" type="line"/>
      <point x="626" y="294" type="line"/>
      <point x="626" y="380" type="line"/>
      <point x="64" y="380" type="line"/>
    </contour>
  </outline>
</glyph>
